P3
# 3.ppm
10 10
255
51 51 51
51 51 51
51 51 51
51 51 51
35 0 0
35 0 0
51 51 51
51 51 51
51 51 51
51 51 51
51 51 51
51 51 51
51 51 51
35 0 0
35 0 0
35 0 0
35 0 0
51 51 51
51 51 51
51 51 51
51 51 51
51 51 51
51 51 51
51 51 51
35 0 0
35 0 0
51 51 51
51 51 51
51 51 51
51 51 51
51 51 51
51 51 51
51 51 51
51 51 51
35 0 0
35 0 0
51 51 51
51 51 51
51 51 51
51 51 51
51 51 51
51 51 51
51 51 51
51 51 51
51 51 51
51 51 51
51 51 51
51 51 51
51 51 51
51 51 51
51 51 51
51 51 51
51 51 51
51 51 51
51 51 51
51 51 51
51 51 51
51 51 51
51 51 51
51 51 51
51 51 51
51 51 51
51 51 51
51 51 51
51 51 51
51 51 51
51 51 51
51 51 51
51 51 51
51 51 51
51 51 51
51 51 51
51 51 51
51 51 51
51 51 51
51 51 51
51 51 51
51 51 51
51 51 51
51 51 51
51 51 51
51 51 51
51 51 51
51 51 51
51 51 51
51 51 51
51 51 51
51 51 51
51 51 51
51 51 51
51 51 51
51 51 51
51 51 51
51 51 51
51 51 51
51 51 51
51 51 51
51 51 51
51 51 51
51 51 51
